REM MD5 e75b78a7591084936551bacc0b580848
FILE "Super Lite Best Vol. 1 - Cotton Original & Block Keeper (Korea).bin" BINARY
  TRACK 01 MODE2/2352
    INDEX 01 00:00:00
  TRACK 02 AUDIO
    INDEX 00 10:45:71
    INDEX 01 10:47:71
  TRACK 03 AUDIO
    INDEX 00 13:00:28
    INDEX 01 13:02:28
REM LEADOUT 16:12:34
